<mxfile host="Electron" modified="2023-08-21T06:52:38.289Z" agent="Mozilla/5.0 (Windows NT 10.0; Win64; x64) AppleWebKit/537.36 (KHTML, like Gecko) draw.io/21.6.8 Chrome/114.0.5735.289 Electron/25.5.0 Safari/537.36" etag="8ZmAyhpKY_siBO9KnqdA" version="21.6.8" type="device">
  <diagram name="Страница — 1" id="aqtqmzV1ZlaLme0O8nfo">
    <mxGraphModel dx="1098" dy="828" grid="1" gridSize="10" guides="1" tooltips="1" connect="1" arrows="1" fold="1" page="1" pageScale="1" pageWidth="827" pageHeight="1169" math="0" shadow="0">
      <root>
        <mxCell id="0" />
        <mxCell id="1" parent="0" />
        <mxCell id="KuSia5BQKkDc9nM355q3-6" style="edgeStyle=orthogonalEdgeStyle;rounded=0;orthogonalLoop=1;jettySize=auto;html=1;entryX=0;entryY=0.5;entryDx=0;entryDy=0;" edge="1" parent="1" source="KuSia5BQKkDc9nM355q3-1" target="KuSia5BQKkDc9nM355q3-5">
          <mxGeometry relative="1" as="geometry" />
        </mxCell>
        <mxCell id="KuSia5BQKkDc9nM355q3-1" value="" style="image;html=1;image=img/lib/clip_art/computers/Server_Rack_Partial_128x128.png" vertex="1" parent="1">
          <mxGeometry x="40" y="80" width="80" height="80" as="geometry" />
        </mxCell>
        <mxCell id="KuSia5BQKkDc9nM355q3-7" style="edgeStyle=orthogonalEdgeStyle;rounded=0;orthogonalLoop=1;jettySize=auto;html=1;" edge="1" parent="1" source="KuSia5BQKkDc9nM355q3-2" target="KuSia5BQKkDc9nM355q3-5">
          <mxGeometry relative="1" as="geometry" />
        </mxCell>
        <mxCell id="KuSia5BQKkDc9nM355q3-2" value="" style="image;html=1;image=img/lib/clip_art/computers/Server_Rack_Partial_128x128.png" vertex="1" parent="1">
          <mxGeometry x="40" y="200" width="80" height="80" as="geometry" />
        </mxCell>
        <mxCell id="KuSia5BQKkDc9nM355q3-8" style="edgeStyle=orthogonalEdgeStyle;rounded=0;orthogonalLoop=1;jettySize=auto;html=1;" edge="1" parent="1" source="KuSia5BQKkDc9nM355q3-3" target="KuSia5BQKkDc9nM355q3-5">
          <mxGeometry relative="1" as="geometry" />
        </mxCell>
        <mxCell id="KuSia5BQKkDc9nM355q3-3" value="" style="image;html=1;image=img/lib/clip_art/computers/Server_Rack_Partial_128x128.png" vertex="1" parent="1">
          <mxGeometry x="40" y="320" width="80" height="80" as="geometry" />
        </mxCell>
        <mxCell id="KuSia5BQKkDc9nM355q3-9" style="edgeStyle=orthogonalEdgeStyle;rounded=0;orthogonalLoop=1;jettySize=auto;html=1;entryX=0;entryY=0.5;entryDx=0;entryDy=0;" edge="1" parent="1" source="KuSia5BQKkDc9nM355q3-4" target="KuSia5BQKkDc9nM355q3-5">
          <mxGeometry relative="1" as="geometry" />
        </mxCell>
        <mxCell id="KuSia5BQKkDc9nM355q3-4" value="" style="image;html=1;image=img/lib/clip_art/computers/Server_Rack_Partial_128x128.png" vertex="1" parent="1">
          <mxGeometry x="40" y="440" width="80" height="80" as="geometry" />
        </mxCell>
        <mxCell id="KuSia5BQKkDc9nM355q3-5" value="" style="image;html=1;image=img/lib/clip_art/computers/Database_128x128.png" vertex="1" parent="1">
          <mxGeometry x="354" y="240" width="120" height="120" as="geometry" />
        </mxCell>
        <mxCell id="KuSia5BQKkDc9nM355q3-10" value="Посты автомойки самообслуживания" style="text;html=1;align=center;verticalAlign=middle;resizable=0;points=[];autosize=1;strokeColor=none;fillColor=none;" vertex="1" parent="1">
          <mxGeometry y="20" width="230" height="30" as="geometry" />
        </mxCell>
        <mxCell id="KuSia5BQKkDc9nM355q3-21" style="edgeStyle=orthogonalEdgeStyle;rounded=0;orthogonalLoop=1;jettySize=auto;html=1;entryX=1;entryY=0.5;entryDx=0;entryDy=0;" edge="1" parent="1" source="KuSia5BQKkDc9nM355q3-12" target="KuSia5BQKkDc9nM355q3-5">
          <mxGeometry relative="1" as="geometry">
            <Array as="points">
              <mxPoint x="575" y="285" />
              <mxPoint x="575" y="300" />
            </Array>
          </mxGeometry>
        </mxCell>
        <mxCell id="KuSia5BQKkDc9nM355q3-12" value="" style="image;html=1;image=img/lib/clip_art/finance/Graph_128x128.png" vertex="1" parent="1">
          <mxGeometry x="670" y="245" width="80" height="80" as="geometry" />
        </mxCell>
        <mxCell id="KuSia5BQKkDc9nM355q3-13" value="OLTP" style="text;html=1;align=center;verticalAlign=middle;resizable=0;points=[];autosize=1;strokeColor=none;fillColor=none;" vertex="1" parent="1">
          <mxGeometry x="270" y="270" width="50" height="30" as="geometry" />
        </mxCell>
        <mxCell id="KuSia5BQKkDc9nM355q3-14" value="СБИС" style="text;html=1;align=center;verticalAlign=middle;resizable=0;points=[];autosize=1;strokeColor=none;fillColor=none;" vertex="1" parent="1">
          <mxGeometry x="384" y="200" width="60" height="30" as="geometry" />
        </mxCell>
        <mxCell id="KuSia5BQKkDc9nM355q3-22" style="edgeStyle=orthogonalEdgeStyle;rounded=0;orthogonalLoop=1;jettySize=auto;html=1;entryX=1;entryY=0.5;entryDx=0;entryDy=0;" edge="1" parent="1" source="KuSia5BQKkDc9nM355q3-15" target="KuSia5BQKkDc9nM355q3-5">
          <mxGeometry relative="1" as="geometry" />
        </mxCell>
        <mxCell id="KuSia5BQKkDc9nM355q3-15" value="" style="verticalLabelPosition=bottom;verticalAlign=top;html=1;shape=mxgraph.basic.smiley" vertex="1" parent="1">
          <mxGeometry x="675" y="445" width="70" height="70" as="geometry" />
        </mxCell>
        <mxCell id="KuSia5BQKkDc9nM355q3-16" value="User" style="text;html=1;align=center;verticalAlign=middle;resizable=0;points=[];autosize=1;strokeColor=none;fillColor=none;" vertex="1" parent="1">
          <mxGeometry x="685" y="520" width="50" height="30" as="geometry" />
        </mxCell>
        <mxCell id="KuSia5BQKkDc9nM355q3-17" value="Налоговая" style="text;html=1;align=center;verticalAlign=middle;resizable=0;points=[];autosize=1;strokeColor=none;fillColor=none;" vertex="1" parent="1">
          <mxGeometry x="670" y="330" width="80" height="30" as="geometry" />
        </mxCell>
        <mxCell id="KuSia5BQKkDc9nM355q3-20" style="edgeStyle=orthogonalEdgeStyle;rounded=0;orthogonalLoop=1;jettySize=auto;html=1;entryX=1;entryY=0.5;entryDx=0;entryDy=0;" edge="1" parent="1" source="KuSia5BQKkDc9nM355q3-18" target="KuSia5BQKkDc9nM355q3-5">
          <mxGeometry relative="1" as="geometry">
            <Array as="points">
              <mxPoint x="575" y="120" />
              <mxPoint x="575" y="300" />
            </Array>
          </mxGeometry>
        </mxCell>
        <mxCell id="KuSia5BQKkDc9nM355q3-18" value="" style="image;html=1;image=img/lib/clip_art/people/Scientist_Woman_128x128.png" vertex="1" parent="1">
          <mxGeometry x="670" y="80" width="80" height="80" as="geometry" />
        </mxCell>
        <mxCell id="KuSia5BQKkDc9nM355q3-19" value="Бухгалтер" style="text;html=1;align=center;verticalAlign=middle;resizable=0;points=[];autosize=1;strokeColor=none;fillColor=none;" vertex="1" parent="1">
          <mxGeometry x="670" y="150" width="80" height="30" as="geometry" />
        </mxCell>
      </root>
    </mxGraphModel>
  </diagram>
</mxfile>
